Coordinates
version=1
nRows=17
nColumns=24
inDegrees=yes

Units are S.I. units (second, meters, Newtons, ...)
Angles are in degrees.

endheader
time	pelvis_tilt	pelvis_list	pelvis_rotation	pelvis_tx	pelvis_ty	pelvis_tz	hip_flexion_r	hip_adduction_r	hip_rotation_r	knee_angle_r	ankle_angle_r	subtalar_angle_r	mtp_angle_r	hip_flexion_l	hip_adduction_l	hip_rotation_l	knee_angle_l	ankle_angle_l	subtalar_angle_l	mtp_angle_l	lumbar_extension	lumbar_bending	lumbar_rotation
      0.88266667	     -4.74341304	     -2.92504412	      0.40408008	     -0.17679005	      1.06399522	      0.30052971	     -0.77189364	      8.11455999	      1.86409998	    -14.67687081	      6.35278703	    -13.50379167	      1.97492947	     23.58717481	     -0.77735190	     -6.56279727	      2.34254841	      1.41716588	      0.76910612	      1.04025578	      4.74398456	      7.18938156	      1.96734191
      0.88683333	     -4.74773946	     -2.97876332	      0.42191266	     -0.17098484	      1.06351663	      0.30030718	     -0.82517103	      8.13559993	      1.68638072	    -15.23675792	      6.44477747	    -13.04712793	      1.98093265	     23.53821987	     -0.77399429	     -6.58990667	      2.28390524	      1.49611362	      1.36048093	      0.94009401	      4.72517240	      7.17115495	      1.97361982
      0.89100000	     -4.72461405	     -3.00572854	      0.42809531	     -0.16505741	      1.06311666	      0.30008627	     -0.90672326	      8.12129633	      1.55266482	    -15.80333729	      6.41765379	    -12.78949949	      1.99042910	     23.42328201	     -0.75166035	     -6.45856764	      2.22332565	      1.42301044	      1.65449168	      0.87892191	      4.77117877	      7.21023685	      1.97822221
      0.89516667	     -4.71114557	     -3.01866539	      0.36615530	     -0.15917011	      1.06273719	      0.30000998	     -0.94504845	      8.09353865	      1.49807270	    -16.43646611	      6.36743248	    -12.74839735	      1.99312729	     23.31174378	     -0.74977194	     -6.33951042	      2.09508312	      1.38818977	      1.73563183	      0.87280197	      4.82417243	      7.19442925	      1.98215505
      0.89933333	     -4.70518152	     -3.05003913	      0.48092048	     -0.15324756	      1.06229632	      0.29953231	     -0.94936472	      8.06683265	      1.14468943	    -17.09479620	      6.25559033	    -12.17623989	      2.02102510	     23.24195588	     -0.68349292	     -5.99287561	      1.88369935	      1.19461077	      2.04752636	      0.83708073	      4.81006539	      7.22746242	      2.00215343
      0.90350000	     -4.66726703	     -3.03784809	      0.40332836	     -0.14730247	      1.06199801	      0.29947923	     -0.96706170	      8.00399286	      1.07852275	    -17.82532077	      6.19947793	    -12.11196638	      2.02665584	     23.09583837	     -0.66646170	     -5.84486058	      1.65715051	      1.15004661	      2.11123813	      0.83359584	      4.87621711	      7.20802292	      2.00542306
      0.90766667	     -4.62385501	     -3.02266108	      0.51718389	     -0.14129705	      1.06166705	      0.29883979	     -0.95871321	      7.89757067	      0.63562867	    -18.59689506	      6.19089466	    -11.14727603	      2.11059540	     22.95283744	     -0.54114483	     -5.32981635	      1.40160186	      0.90642454	      2.12623076	      0.79560042	      4.88585664	      7.28105885	      1.99389699
      0.91183333	     -4.62166922	     -2.98410481	      0.46436900	     -0.13535703	      1.06133497	      0.29865729	     -0.86796349	      7.78608939	      0.44276986	    -19.45070830	      6.04995596	    -10.97721679	      2.13294792	     22.85051976	     -0.47875612	     -5.10587059	      1.08825377	      0.77041572	      2.14678329	      0.78955220	      4.81799981	      7.17750263	      2.00027580
      0.91600000	     -4.59442580	     -2.94770176	      0.51084579	     -0.12938371	      1.06103542	      0.29823870	     -0.78042360	      7.66234811	      0.08920984	    -20.32860595	      5.77369281	    -10.49302381	      2.18176242	     22.72653790	     -0.37260910	     -4.71727935	      0.75708450	      0.47936754	      2.09629234	      0.78250105	      4.78866978	      7.11829205	      2.01778778
      0.92016667	     -4.50953937	     -2.93680478	      0.61274197	     -0.12352139	      1.06080924	      0.29778000	     -0.72466246	      7.56621820	     -0.28425273	    -21.24399738	      5.53088446	     -9.79238128	      2.27640565	     22.55782178	     -0.27987970	     -4.22140519	      0.38318406	      0.12134518	      1.76009115	      0.77877607	      4.82280080	      7.07212928	      2.02926698
      0.92433333	     -4.46255843	     -2.85380154	      0.60739758	     -0.11750487	      1.06061972	      0.29725285	     -0.59686774	      7.35854094	     -0.62066765	    -22.25197771	      5.36669580	     -9.13549951	      2.45281955	     22.35168746	     -0.13314722	     -3.61487053	      0.10448693	     -0.27415974	      1.09620281	      0.78670558	      4.88200141	      7.07727662	      1.99900910
      0.92850000	     -4.37346798	     -2.78372952	      0.52590830	     -0.11162111	      1.06051587	      0.29723660	     -0.47584221	      7.20662060	     -0.79455142	    -23.32743681	      5.22558098	     -9.09785559	      2.46755820	     22.15194239	     -0.07081618	     -3.47538612	     -0.28883436	     -0.35869664	      1.11109625	      0.78887959	      4.91188769	      6.98628480	      2.00808046
      0.93266667	     -4.37147457	     -2.70303848	      0.62153888	     -0.10566700	      1.06025769	      0.29669735	     -0.23169381	      7.00266763	     -1.27289158	    -24.40708509	      4.58732635	     -8.48961737	      2.56473487	     22.06232839	      0.10225406	     -3.08171736	     -0.70030221	     -0.82826363	      0.78373478	      0.79610221	      4.77009533	      6.73549704	      2.04908997
      0.93683333	     -4.28267001	     -2.55918458	      0.61221679	     -0.09959444	      1.06023616	      0.29601195	     -0.05817122	      6.68796384	     -1.66868758	    -25.56113649	      4.14355051	     -7.73593460	      2.81698708	     21.76539885	      0.32072101	     -2.33858412	     -0.92656731	     -1.42106590	     -0.24647827	      0.82588929	      4.85775619	      6.78130929	      2.03028312
      0.94100000	     -4.21820485	     -2.44189484	      0.64609465	     -0.09370101	      1.06014635	      0.29542594	      0.19443454	      6.41381177	     -2.12688631	    -26.79608753	      3.76462299	     -7.32313943	      3.20930363	     21.57125307	      0.51594134	     -1.86957716	     -1.28590052	     -1.89424391	     -1.18552674	      0.88531831	      4.78427917	      6.64404977	      2.00145144
      0.94516667	     -4.17242134	     -2.32079716	      0.61972092	     -0.08783167	      1.06006711	      0.29518547	      0.49583121	      6.15692105	     -2.43918509	    -28.06502323	      3.18262513	     -7.01425456	      3.33242365	     21.40835819	      0.66180987	     -1.61188351	     -1.68167147	     -2.16927349	     -1.32040453	      0.90378917	      4.69110079	      6.37416550	      2.03138151
      0.94933333	     -4.08893121	     -2.15245488	      0.62814519	     -0.08184933	      1.06009364	      0.29449240	      0.78230388	      5.79199223	     -2.89534295	    -29.38186344	      2.54962107	     -6.51545789	      3.81575772	     21.15035732	      0.90821348	     -1.05289475	     -1.97415681	     -2.75887755	     -2.46972476	      0.96929887	      4.71328525	      6.33317390	      2.02680900
